<svg xmlns="http://www.w3.org/2000/svg" viewBox="0 0 36 36">
  <rect width="36" height="36" rx="8" fill="#000"/>
  <g transform="rotate(-14 12 13)">
    <circle cx="12" cy="13" r="7" fill="none" stroke="#16A2DF" stroke-width="1.6"/>
    <path d="M12 6V20M5 13H19" stroke="#16A2DF" stroke-width="1" fill="none" stroke-linecap="round"/>
    <path d="M6.4 7.9Q11 13 6.4 18.1M17.6 7.9Q13 13 17.6 18.1" stroke="#16A2DF" stroke-width="1" fill="none" stroke-linecap="round"/>
  </g>
  <g transform="rotate(24 25 13)">
    <circle cx="25" cy="13" r="7" fill="none" stroke="#A0EE26" stroke-width="1.6"/>
    <path d="M20.5 8Q25 13 20.5 18M29.5 8Q25 13 29.5 18" stroke="#A0EE26" stroke-width="1" fill="none" stroke-linecap="round"/>
  </g>
  <g transform="rotate(32 18 27)">
    <ellipse cx="18" cy="27" rx="9" ry="5.3" fill="none" stroke="#F4289B" stroke-width="1.6"/>
    <path d="M9.5 27H26.5M14 24.3V29.7M18 23.7V30.3M22 24.3V29.7" stroke="#F4289B" stroke-width="1" fill="none" stroke-linecap="round"/>
  </g>
</svg>
